HIERARCHY
ROOT hip
{
  OFFSET 0 0 0
  CHANNELS 6 Xposition Yposition Zposition Zrotation Yrotation Xrotation
  JOINT abdomen
  {
    OFFSET 0 20.6881 -0.73152
    CHANNELS 3 Zrotation Xrotation Yrotation
    JOINT chest
    {
      OFFSET 0 11.7043 -0.48768
      CHANNELS 3 Zrotation Xrotation Yrotation
      JOINT neck
      {
        OFFSET 0 22.1894 -2.19456
        CHANNELS 3 Zrotation Xrotation Yrotation
        JOINT head
        {
          OFFSET -0.24384 7.07133 1.2192
          CHANNELS 3 Zrotation Xrotation Yrotation
          JOINT leftEye
          {
            OFFSET 4.14528 8.04674 8.04672
            CHANNELS 3 Zrotation Xrotation Yrotation
            End Site
            {
              OFFSET 1 0 0
            }
          }
          JOINT rightEye
          {
            OFFSET -3.6576 8.04674 8.04672
            CHANNELS 3 Zrotation Xrotation Yrotation
            End Site
            {
              OFFSET 1 0 0
            }
          }
        }
      }
      JOINT rCollar
      {
        OFFSET -2.68224 19.2634 -4.8768
        CHANNELS 3 Zrotation Xrotation Yrotation
        JOINT rShldr
        {
          OFFSET -8.77824 -1.95073 1.46304
          CHANNELS 3 Zrotation Xrotation Yrotation
          JOINT rForeArm
          {
            OFFSET -28.1742 -1.7115 0.48768
            CHANNELS 3 Zrotation Xrotation Yrotation
            JOINT rHand
            {
              OFFSET -22.5879 0.773209 7.07136
              CHANNELS 3 Zrotation Xrotation Yrotation
              JOINT rThumb1
              {
                OFFSET -1.2192 -0.487915 3.41376
                CHANNELS 3 Zrotation Xrotation Yrotation
                JOINT rThumb2
                {
                  OFFSET -3.37035 -0.52449 3.41376
                  CHANNELS 3 Zrotation Xrotation Yrotation
                  End Site
                  {
                    OFFSET -1.78271 -1.18214 1.43049
                  }
                }
              }
              JOINT rIndex1
              {
                OFFSET -7.75947 0.938293 5.60832
                CHANNELS 3 Zrotation Xrotation Yrotation
                JOINT rIndex2
                {
                  OFFSET -2.54057 -0.884171 1.56538
                  CHANNELS 3 Zrotation Xrotation Yrotation
                  End Site
                  {
                    OFFSET -1.62519 -0.234802 1.16502
                  }
                }
              }
              JOINT rMid1
              {
                OFFSET -8.24714 1.18213 3.41376
                CHANNELS 3 Zrotation Xrotation Yrotation
                JOINT rMid2
                {
                  OFFSET -3.10165 -0.590103 1.0647
                  CHANNELS 3 Zrotation Xrotation Yrotation
                  End Site
                  {
                    OFFSET -2.48547 -0.328903 0.83742
                  }
                }
              }
              JOINT rRing1
              {
                OFFSET -8.82822 0.546677 1.51678
                CHANNELS 3 Zrotation Xrotation Yrotation
                JOINT rRing2
                {
                  OFFSET -2.60934 -0.819778 -0.0198488
                  CHANNELS 3 Zrotation Xrotation Yrotation
                  End Site
                  {
                    OFFSET -2.33842 -0.294052 0.168128
                  }
                }
              }
              JOINT rPinky1
              {
                OFFSET -8.27202 -0.0477905 -0.4584
                CHANNELS 3 Zrotation Xrotation Yrotation
                JOINT rPinky2
                {
                  OFFSET -1.82734 -0.647385 -0.700984
                  CHANNELS 3 Zrotation Xrotation Yrotation
                  End Site
                  {
                    OFFSET -1.69225 -0.51767 -0.607171
                  }
                }
              }
            }
          }
        }
      }
      JOINT lCollar
      {
        OFFSET 2.68224 19.2634 -4.8768
        CHANNELS 3 Zrotation Xrotation Yrotation
        JOINT lShldr
        {
          OFFSET 8.77824 -1.95073 1.46304
          CHANNELS 3 Zrotation Xrotation Yrotation
          JOINT lForeArm
          {
            OFFSET 28.1742 -1.7115 0.48768
            CHANNELS 3 Zrotation Xrotation Yrotation
            JOINT lHand
            {
              OFFSET 22.5879 0.773209 7.07136
              CHANNELS 3 Zrotation Xrotation Yrotation
              JOINT lThumb1
              {
                OFFSET 1.2192 -0.487915 3.41376
                CHANNELS 3 Zrotation Xrotation Yrotation
                JOINT lThumb2
                {
                  OFFSET 3.37035 -0.52449 3.41376
                  CHANNELS 3 Zrotation Xrotation Yrotation
                  End Site
                  {
                    OFFSET 1.78271 -1.18214 1.43049
                  }
                }
              }
              JOINT lIndex1
              {
                OFFSET 7.75947 0.938293 5.60832
                CHANNELS 3 Zrotation Xrotation Yrotation
                JOINT lIndex2
                {
                  OFFSET 2.54057 -0.884171 1.56538
                  CHANNELS 3 Zrotation Xrotation Yrotation
                  End Site
                  {
                    OFFSET 1.62519 -0.234802 1.16502
                  }
                }
              }
              JOINT lMid1
              {
                OFFSET 8.24714 1.18213 3.41376
                CHANNELS 3 Zrotation Xrotation Yrotation
                JOINT lMid2
                {
                  OFFSET 3.10165 -0.590103 1.0647
                  CHANNELS 3 Zrotation Xrotation Yrotation
                  End Site
                  {
                    OFFSET 2.48547 -0.328903 0.83742
                  }
                }
              }
              JOINT lRing1
              {
                OFFSET 8.82822 0.546677 1.51678
                CHANNELS 3 Zrotation Xrotation Yrotation
                JOINT lRing2
                {
                  OFFSET 2.60934 -0.819778 -0.0198488
                  CHANNELS 3 Zrotation Xrotation Yrotation
                  End Site
                  {
                    OFFSET 2.33842 -0.294052 0.168128
                  }
                }
              }
              JOINT lPinky1
              {
                OFFSET 8.27202 -0.0477905 -0.4584
                CHANNELS 3 Zrotation Xrotation Yrotation
                JOINT lPinky2
                {
                  OFFSET 1.82734 -0.647385 -0.700984
                  CHANNELS 3 Zrotation Xrotation Yrotation
                  End Site
                  {
                    OFFSET 1.69225 -0.51767 -0.607171
                  }
                }
              }
            }
          }
        }
      }
    }
  }
  JOINT rButtock
  {
    OFFSET -8.77824 4.35084 1.2192
    CHANNELS 3 Zrotation Xrotation Yrotation
    JOINT rThigh
    {
      OFFSET 0 -1.70687 -2.19456
      CHANNELS 3 Zrotation Xrotation Yrotation
      JOINT rShin
      {
        OFFSET 0 -36.8199 0.73152
        CHANNELS 3 Zrotation Xrotation Yrotation
        JOINT rFoot
        {
          OFFSET 0.73152 -45.1104 -5.12064
          CHANNELS 3 Zrotation Xrotation Yrotation
          End Site
          {
            OFFSET -1.1221 -3.69964 12.103
          }
        }
      }
    }
  }
  JOINT lButtock
  {
    OFFSET 8.77824 4.35084 1.2192
    CHANNELS 3 Zrotation Xrotation Yrotation
    JOINT lThigh
    {
      OFFSET 0 -1.70687 -2.19456
      CHANNELS 3 Zrotation Xrotation Yrotation
      JOINT lShin
      {
        OFFSET 0 -36.8199 0.73152
        CHANNELS 3 Zrotation Xrotation Yrotation
        JOINT lFoot
        {
          OFFSET -0.73152 -45.1104 -5.12064
          CHANNELS 3 Zrotation Xrotation Yrotation
          End Site
          {
            OFFSET 1.1221 -3.69964 12.103
          }
        }
      }
    }
  }
}
MOTION
Frames:	5
Frame Time:	0.00833333
-8.79964 80.6112 -6.68881 -0.0 0.0 -0.0 -0.0 -4.771896 -180.0 -0.0 -4.771896 180.0 -5.787111 3.44739 -38.917117 6.664294 0.962324 39.035388 0.0 -0.0 -0.0 0.0 -0.0 -0.0 -155.504155 -3.514523 161.838528 12.703764 17.303566 18.211188 -169.126798 1.574213 175.997696 4.474653 -13.80024 1.017807 -89.136032 38.427358 50.299234 -144.580652 -26.969225 80.167027 -117.258193 28.443591 99.152717 2.40993 23.168264 -10.905222 -167.298223 -27.767532 145.260174 -160.714049 -5.69955 141.960359 -145.119466 0.267775 -179.212461 -145.972809 11.725593 179.437948 -136.9593 -9.523921 -134.262679 -18.267889 -37.738593 -22.080005 155.504155 -3.514523 -161.838528 -12.703764 17.303566 -18.211188 -178.618382 41.131716 177.842495 8.295852 25.345781 -0.98418 -71.831195 -48.263725 -25.791675 138.245149 12.271559 -106.648222 151.353117 -17.158427 -121.133109 149.347481 -12.907258 -120.884311 -68.983989 -80.15399 -40.578188 174.399077 -31.376516 -140.284406 114.669357 66.731663 -135.092548 -14.143173 29.157202 13.355561 -12.252484 41.424931 -10.280249 139.792012 -13.194187 133.605479 -180.0 75.749642 -0.0 -180.0 75.749642 -0.0 -5.253206 4.259844 -61.803787 46.924645 37.416912 30.00718 -180.0 75.749642 -0.0 -180.0 75.749642 -0.0 5.65445 6.518803 81.877826 -141.329165 30.503921 59.96646
-8.906 80.3456 -7.47133 0.0 -0.0 -0.0 -0.0 0.0 -0.0 0.0 -0.0 0.0 -7.839959 7.474454 -64.637578 10.095103 3.902534 64.805654 0.0 0.0 0.0 0.0 0.0 0.0 -80.1661 68.371792 83.260848 16.926686 14.149077 -0.16198 -9.658222 0.506337 -24.812349 120.405817 -67.497422 103.35925 -6.400704 6.175885 1.319094 -144.133745 -50.518718 116.029977 -28.901256 31.616227 21.337761 -172.838722 -15.259977 117.565201 153.671271 -76.484326 121.219909 -111.470213 56.415245 101.984642 0.004875 1.770451 0.556181 -159.414701 43.563488 163.754401 1.298213 3.491578 1.192968 26.796931 75.590289 5.397037 143.620413 38.233348 -148.080496 153.957717 -16.253759 -171.208151 84.544183 74.148187 -74.777175 -26.875023 -53.616078 -15.845668 5.433768 5.264911 -1.077842 75.417558 23.330227 -70.248299 7.259747 10.78091 -4.54709 168.096228 -5.12294 -111.658504 175.932641 -50.680399 -144.035247 -0.040387 12.690122 -4.81093 145.119466 0.267753 179.212454 -18.143849 -20.898234 12.1647 156.381711 53.734251 150.117957 155.514495 36.887524 144.274557 -180.0 75.749642 -0.0 180.0 75.749642 0.0 -5.253206 4.259844 -61.803787 -165.268848 -65.709165 -45.656772 -180.0 75.749642 -0.0 180.0 75.749642 0.0 5.253206 4.259844 61.803787 -101.540103 37.751037 18.59678
-9.02209 80.1415 -8.21809 0.0 -0.0 -0.0 -0.0 0.0 -0.0 0.0 -0.0 -0.0 11.359575 6.157081 79.425429 -8.145262 10.039281 -79.321748 -0.0 0.0 -0.0 -0.0 0.0 -0.0 -13.015985 41.250126 14.798846 8.81561 13.901038 -3.169188 7.336734 -69.645969 3.756972 -4.025154 12.8046 0.01168 -85.829417 38.630721 47.955432 20.914577 -26.464219 21.714466 -155.193415 -24.299992 122.142835 22.622786 -0.199085 -9.862725 89.035113 -81.393384 59.759886 -170.189698 -21.934736 140.812442 -72.350995 72.974965 90.218005 -147.916508 -40.674378 -163.394575 -124.851156 -29.038378 -122.621388 -154.996748 49.304193 -150.059639 80.1661 68.371792 -83.260848 -17.024001 0.106198 1.031406 -24.568166 81.169562 55.212806 -173.377479 -8.487055 -144.741604 85.829417 38.630721 -47.955432 -1.78624 -16.972292 -25.078075 159.053898 -31.319752 -122.653982 72.63809 55.557577 -66.261651 160.673322 -6.667841 -143.245105 -13.021157 -19.825367 1.20826 -0.000474 0.063839 -0.020056 0.607859 7.494039 -0.971766 -1.482059 4.003653 -1.360876 25.089877 -39.761794 23.346946 -180.0 75.749642 -0.0 180.0 75.749642 0.0 -5.253206 4.259844 -61.803787 -165.268848 -65.709165 -45.656772 -180.0 75.749642 -0.0 180.0 75.749642 0.0 5.253206 4.259844 61.803787 -101.540103 37.751037 18.59678
-9.18531 79.9923 -8.94635 -0.0 0.0 -0.0 -0.0 -4.771896 -180.0 -0.0 -4.771896 180.0 -5.787111 3.44739 -38.917117 6.664294 0.962324 39.035388 0.0 -0.0 -0.0 0.0 -0.0 -0.0 -80.1661 68.371792 83.260848 -156.024517 -0.048897 179.057507 -146.330988 75.341298 148.195765 3.207672 -10.030069 0.626371 -173.770775 -11.439911 89.891324 108.31027 -65.177461 81.308267 -148.886119 -12.609784 120.244776 98.439215 -72.17758 36.003293 23.903801 -61.333833 1.399383 -31.882685 49.222509 26.394376 -145.10847 3.679512 179.714986 -141.251678 81.42367 165.506713 -157.360741 57.357876 -150.523183 -147.71468 14.151141 -140.753048 142.973735 39.431617 -147.390037 -19.213928 13.697964 -8.297526 -2.057256 5.999332 33.191322 -167.062283 -25.96537 -142.238689 -0.567845 -0.561452 0.084526 115.510563 -2.968349 -104.671643 -159.641557 -69.973343 -102.396332 55.829193 47.896521 -51.08139 36.036059 51.723116 -29.832321 163.398833 -0.64163 -145.454252 0.014868 -1.323148 0.415899 8.968127 49.358809 -11.127104 103.687757 -45.141178 101.853968 126.229352 -31.50487 126.804093 -0.0 0.0 -0.0 -0.0 -0.0 -0.0 4.304493 0.86717 39.030537 -105.51929 22.275893 32.917396 -0.0 0.0 -0.0 -0.0 -0.0 -0.0 -7.246024 4.668533 -81.805951 150.987691 -17.864848 -99.949489
-9.3883 79.8715 -9.68658 -0.0 0.0 -0.0 -0.0 -4.771896 -180.0 0.0 -4.771896 -180.0 11.990363 8.482615 93.076228 -7.823596 12.42674 -93.115607 -0.0 -0.0 0.0 -0.0 -0.0 0.0 -142.973735 39.431617 147.390037 93.845266 -84.971042 68.195843 164.511759 -11.123571 152.794289 -160.587667 53.437568 135.391884 83.25393 -50.258079 33.616048 -93.017339 38.667106 55.788772 -140.684449 1.505836 116.183204 -9.457027 45.402282 4.517266 -151.476684 17.84174 137.538824 -0.077957 17.951938 2.293305 -145.119466 0.267753 -179.212454 -139.639452 79.294932 164.360565 -5.514624 -12.596526 -5.174679 -129.461363 -31.668669 -125.988025 155.460052 -3.227798 -161.777534 30.706902 64.588465 -53.660166 169.453473 82.868141 -172.625785 3.707256 11.812153 0.022118 -51.059793 -41.203951 -12.856726 49.556966 33.004261 -20.815252 -159.641557 -69.973343 -102.396332 159.777901 -24.999359 -108.372143 160.09819 -4.901163 -142.968881 173.640098 -42.744051 -142.533446 0.014868 -1.323148 0.415899 84.094999 78.521328 -87.267037 145.806779 14.096455 142.381105 143.855597 8.186608 140.808019 -180.0 75.749642 -0.0 -180.0 75.749642 -0.0 -5.253206 4.259844 -61.803787 151.018856 -10.263921 -55.350778 -180.0 75.749642 -0.0 -180.0 75.749642 -0.0 5.253206 4.259844 61.803787 -151.018856 -10.263921 55.350778
